<svg xmlns="http://www.w3.org/2000/svg" width="20" height="20" viewBox="0 0 20 20">
  <g id="closeImage" transform="translate(-13159 -3252)">
    <g id="Path_91850" data-name="Path 91850" transform="translate(13159 3252)" fill="#c5001b">
      <path d="M 10 19.5 C 4.761680126190186 19.5 0.5 15.23832035064697 0.5 10 C 0.5 4.761680126190186 4.761680126190186 0.5 10 0.5 C 15.23832035064697 0.5 19.5 4.761680126190186 19.5 10 C 19.5 15.23832035064697 15.23832035064697 19.5 10 19.5 Z" stroke="none"/>
      <path d="M 10 1 C 5.037380218505859 1 1 5.037380218505859 1 10 C 1 14.96261978149414 5.037380218505859 19 10 19 C 14.96261978149414 19 19 14.96261978149414 19 10 C 19 5.037380218505859 14.96261978149414 1 10 1 M 10 0 C 15.52285003662109 0 20 4.477149963378906 20 10 C 20 15.52285003662109 15.52285003662109 20 10 20 C 4.477149963378906 20 0 15.52285003662109 0 10 C 0 4.477149963378906 4.477149963378906 0 10 0 Z" stroke="none" fill="#707070"/>
    </g>
    <g id="Group_781" data-name="Group 781" transform="translate(13157 3250)">
      <path id="Path_1148" data-name="Path 1148" d="M14.67,9.342a.76.76,0,0,1,0,1.093l-4.221,4.123a.8.8,0,0,1-1.119,0,.761.761,0,0,1,0-1.093l4.221-4.123A.8.8,0,0,1,14.67,9.342Z" fill="#fff" fill-rule="evenodd"/>
      <path id="Path_1149" data-name="Path 1149" d="M9.33,9.342a.8.8,0,0,1,1.119,0l4.221,4.123a.761.761,0,0,1,0,1.093.8.8,0,0,1-1.119,0L9.33,10.435A.761.761,0,0,1,9.33,9.342Z" fill="#fff" fill-rule="evenodd"/>
    </g>
    <path id="Path_91849" data-name="Path 91849" d="M12,3.538A8.462,8.462,0,1,0,20.462,12,8.462,8.462,0,0,0,12,3.538ZM2,12A10,10,0,1,1,12,22,10,10,0,0,1,2,12Z" transform="translate(13157 3250)" fill="#c5001b" fill-rule="evenodd"/>
  </g>
</svg>
