<svg xmlns="http://www.w3.org/2000/svg" width="current" height="current" viewBox="0 0 25.434 25.434">
  <g id="DashboardIn" transform="translate(-2 -2)">
    <path id="Path_984" data-name="Path 984" d="M7.723,4.02a18.277,18.277,0,0,0-3.113.4.243.243,0,0,0-.194.194,18.277,18.277,0,0,0-.4,3.113,18.277,18.277,0,0,0,.4,3.113.243.243,0,0,0,.194.194,18.277,18.277,0,0,0,3.113.4,18.277,18.277,0,0,0,3.113-.4.243.243,0,0,0,.194-.194,18.277,18.277,0,0,0,.4-3.113,18.277,18.277,0,0,0-.4-3.113.243.243,0,0,0-.194-.194A18.277,18.277,0,0,0,7.723,4.02ZM4.215,2.435A20.113,20.113,0,0,1,7.723,2a20.113,20.113,0,0,1,3.508.435,2.263,2.263,0,0,1,1.78,1.78,20.11,20.11,0,0,1,.435,3.508,20.11,20.11,0,0,1-.435,3.508,2.263,2.263,0,0,1-1.78,1.78,20.11,20.11,0,0,1-3.508.435,20.11,20.11,0,0,1-3.508-.435,2.263,2.263,0,0,1-1.78-1.78A20.113,20.113,0,0,1,2,7.723a20.113,20.113,0,0,1,.435-3.508A2.263,2.263,0,0,1,4.215,2.435Z" fill="#9e9e9e" fill-rule="evenodd"/>
    <path id="Path_985" data-name="Path 985" d="M7.723,15.02a18.273,18.273,0,0,0-3.113.4.243.243,0,0,0-.194.194,18.277,18.277,0,0,0-.4,3.113,18.277,18.277,0,0,0,.4,3.113.243.243,0,0,0,.194.194,18.273,18.273,0,0,0,3.113.4,18.273,18.273,0,0,0,3.113-.4.243.243,0,0,0,.194-.194,18.277,18.277,0,0,0,.4-3.113,18.277,18.277,0,0,0-.4-3.113.243.243,0,0,0-.194-.194A18.273,18.273,0,0,0,7.723,15.02ZM4.215,13.435A20.11,20.11,0,0,1,7.723,13a20.11,20.11,0,0,1,3.508.435,2.263,2.263,0,0,1,1.78,1.78,20.111,20.111,0,0,1,.435,3.508,20.111,20.111,0,0,1-.435,3.508,2.263,2.263,0,0,1-1.78,1.78,20.11,20.11,0,0,1-3.508.435,20.11,20.11,0,0,1-3.508-.435,2.263,2.263,0,0,1-1.78-1.78A20.114,20.114,0,0,1,2,18.723a20.114,20.114,0,0,1,.435-3.508A2.263,2.263,0,0,1,4.215,13.435Z" transform="translate(0 2.988)" fill="#9e9e9e" fill-rule="evenodd"/>
    <path id="Path_986" data-name="Path 986" d="M18.723,4.02a18.277,18.277,0,0,0-3.113.4.243.243,0,0,0-.194.194,18.273,18.273,0,0,0-.4,3.113,18.273,18.273,0,0,0,.4,3.113.243.243,0,0,0,.194.194,18.277,18.277,0,0,0,3.113.4,18.277,18.277,0,0,0,3.113-.4.243.243,0,0,0,.194-.194,18.273,18.273,0,0,0,.4-3.113,18.273,18.273,0,0,0-.4-3.113.243.243,0,0,0-.194-.194A18.277,18.277,0,0,0,18.723,4.02ZM15.215,2.435A20.114,20.114,0,0,1,18.723,2a20.114,20.114,0,0,1,3.508.435,2.263,2.263,0,0,1,1.78,1.78,20.11,20.11,0,0,1,.435,3.508,20.11,20.11,0,0,1-.435,3.508,2.263,2.263,0,0,1-1.78,1.78,20.111,20.111,0,0,1-3.508.435,20.111,20.111,0,0,1-3.508-.435,2.263,2.263,0,0,1-1.78-1.78A20.11,20.11,0,0,1,13,7.723a20.11,20.11,0,0,1,.435-3.508A2.263,2.263,0,0,1,15.215,2.435Z" transform="translate(2.988)" fill="#9e9e9e" fill-rule="evenodd"/>
    <path id="Path_987" data-name="Path 987" d="M18.723,15.02a18.273,18.273,0,0,0-3.113.4.243.243,0,0,0-.194.194,18.273,18.273,0,0,0-.4,3.113,18.273,18.273,0,0,0,.4,3.113.243.243,0,0,0,.194.194,18.273,18.273,0,0,0,3.113.4,18.273,18.273,0,0,0,3.113-.4.243.243,0,0,0,.194-.194,18.273,18.273,0,0,0,.4-3.113,18.273,18.273,0,0,0-.4-3.113.243.243,0,0,0-.194-.194A18.273,18.273,0,0,0,18.723,15.02Zm-3.508-1.585A20.111,20.111,0,0,1,18.723,13a20.111,20.111,0,0,1,3.508.435,2.263,2.263,0,0,1,1.78,1.78,20.111,20.111,0,0,1,.435,3.508,20.111,20.111,0,0,1-.435,3.508,2.263,2.263,0,0,1-1.78,1.78,20.111,20.111,0,0,1-3.508.435,20.111,20.111,0,0,1-3.508-.435,2.263,2.263,0,0,1-1.78-1.78A20.111,20.111,0,0,1,13,18.723a20.111,20.111,0,0,1,.435-3.508A2.263,2.263,0,0,1,15.215,13.435Z" transform="translate(2.988 2.988)" fill="#9e9e9e" fill-rule="evenodd"/>
  </g>
</svg>
