<svg xmlns="http://www.w3.org/2000/svg" width="22.823" height="22.797" viewBox="0 0 22.823 22.797">
  <path id="dribw" d="M19.412,30.816a11.4,11.4,0,1,1,11.412-11.4A11.413,11.413,0,0,1,19.412,30.816Zm9.62-9.843a14.374,14.374,0,0,0-6.071-.419,41.587,41.587,0,0,1,1.89,6.936A9.678,9.678,0,0,0,29.031,20.973Zm-5.813,7.418a40.424,40.424,0,0,0-2.077-7.382.165.165,0,0,1-.062.018,13.389,13.389,0,0,0-7.649,6.08,9.709,9.709,0,0,0,5.982,2.051A9.522,9.522,0,0,0,23.218,28.391ZM12.172,25.939A15.534,15.534,0,0,1,20.1,19.511c.125-.045.259-.08.383-.116-.241-.553-.508-1.106-.793-1.649A36,36,0,0,1,9.667,19.127c0,.1-.009.2-.009.294A9.742,9.742,0,0,0,12.172,25.939Zm-2.3-8.505a36.081,36.081,0,0,0,9.013-1.186,62.229,62.229,0,0,0-3.611-5.626A9.762,9.762,0,0,0,9.872,17.433Zm7.257-7.471a51.256,51.256,0,0,1,3.637,5.7,11.05,11.05,0,0,0,5.108-3.513,9.717,9.717,0,0,0-6.464-2.452A10.12,10.12,0,0,0,17.129,9.962Zm9.825,3.308a12.979,12.979,0,0,1-5.438,3.843c.223.464.446.936.651,1.409.071.169.143.339.214.5a22.9,22.9,0,0,1,6.785.312A9.7,9.7,0,0,0,26.954,13.27Z" transform="translate(-8 -8.02)" fill="#fff"/>
</svg>
