<svg xmlns="http://www.w3.org/2000/svg" width="23" height="23" viewBox="0 0 23 23">
  <g id="dribpink" transform="translate(0 -0.428)">
    <rect id="Rectangle_2174" data-name="Rectangle 2174" width="23" height="23" rx="11.5" transform="translate(0 0.428)" fill="#ea4c89"/>
    <path id="Path_91826" data-name="Path 91826" d="M15.6,23.2a7.59,7.59,0,1,1,7.6-7.593A7.6,7.6,0,0,1,15.6,23.2ZM22,16.645a9.572,9.572,0,0,0-4.043-.279,27.694,27.694,0,0,1,1.259,4.619A6.445,6.445,0,0,0,22,16.645Zm-3.871,4.939a26.918,26.918,0,0,0-1.383-4.916.11.11,0,0,1-.042.012,8.916,8.916,0,0,0-5.094,4.049A6.465,6.465,0,0,0,15.6,22.1,6.341,6.341,0,0,0,18.134,21.584Zm-7.356-1.633a10.344,10.344,0,0,1,5.278-4.28c.083-.03.172-.053.255-.077-.16-.368-.338-.736-.528-1.1a23.976,23.976,0,0,1-6.673.92c0,.065-.006.131-.006.2A6.487,6.487,0,0,0,10.778,19.952ZM9.247,14.288a24.027,24.027,0,0,0,6-.79,41.438,41.438,0,0,0-2.4-3.746A6.5,6.5,0,0,0,9.247,14.288Zm4.833-4.975A34.132,34.132,0,0,1,16.5,13.107a7.358,7.358,0,0,0,3.4-2.339,6.471,6.471,0,0,0-4.3-1.633A6.739,6.739,0,0,0,14.079,9.313Zm6.542,2.2A8.643,8.643,0,0,1,17,14.074c.148.309.3.623.433.938.047.113.095.226.142.332a15.247,15.247,0,0,1,4.518.208A6.457,6.457,0,0,0,20.622,11.516Z" transform="translate(-4.001 -4.279)" fill="#fff"/>
  </g>
</svg>
