<svg xmlns="http://www.w3.org/2000/svg" width="22.824" height="22.797" viewBox="0 0 22.824 22.797">
  <path id="dribblack" d="M19.412,30.816a11.4,11.4,0,1,1,11.412-11.4A11.413,11.413,0,0,1,19.412,30.816Zm9.62-9.843a14.374,14.374,0,0,0-6.072-.419,41.589,41.589,0,0,1,1.89,6.936A9.678,9.678,0,0,0,29.032,20.973Zm-5.813,7.418a40.425,40.425,0,0,0-2.077-7.382.165.165,0,0,1-.062.018,13.389,13.389,0,0,0-7.65,6.081,9.709,9.709,0,0,0,5.982,2.051A9.522,9.522,0,0,0,23.219,28.391ZM12.173,25.939A15.534,15.534,0,0,1,20.1,19.511c.125-.045.259-.08.383-.116-.241-.553-.508-1.106-.793-1.649A36.006,36.006,0,0,1,9.667,19.128c0,.1-.009.2-.009.294A9.742,9.742,0,0,0,12.173,25.939Zm-2.3-8.506a36.083,36.083,0,0,0,9.014-1.186,62.231,62.231,0,0,0-3.611-5.626A9.763,9.763,0,0,0,9.872,17.434ZM17.13,9.962a51.258,51.258,0,0,1,3.638,5.7,11.05,11.05,0,0,0,5.109-3.513,9.718,9.718,0,0,0-6.464-2.452A10.121,10.121,0,0,0,17.13,9.962Zm9.825,3.308a12.98,12.98,0,0,1-5.439,3.843c.223.464.446.936.651,1.409.071.169.143.339.214.5a22.9,22.9,0,0,1,6.785.312A9.7,9.7,0,0,0,26.955,13.27Z" transform="translate(-8 -8.02)" fill="#b8b8b8"/>
</svg>
