<svg xmlns="http://www.w3.org/2000/svg" width="8.353" height="9.559" viewBox="0 0 8.353 9.559">
  <path id="fork" d="M1.79,0A1.788,1.788,0,0,0,0,1.79,1.769,1.769,0,0,0,1.193,3.473V6.086A1.757,1.757,0,0,0,0,7.769a1.79,1.79,0,1,0,3.58,0,1.755,1.755,0,0,0-1-1.6.592.592,0,0,1,.406-.191H5.37a1.8,1.8,0,0,0,1.79-1.79v-.7A1.757,1.757,0,0,0,8.353,1.8a1.79,1.79,0,0,0-3.58,0A1.769,1.769,0,0,0,5.967,3.485v.7a.591.591,0,0,1-.6.6H2.983a1.958,1.958,0,0,0-.6.107V3.473A1.757,1.757,0,0,0,3.58,1.79,1.788,1.788,0,0,0,1.79,0Z" fill="#474dff"/>
</svg>
