<svg xmlns="http://www.w3.org/2000/svg" width="23.424" height="22.797" viewBox="0 0 23.424 22.797">
  <path id="gitb" d="M19.684,8a11.684,11.684,0,0,0-3.69,22.775c.584.107.8-.253.8-.565V28.263c-3.252.7-3.895-1.568-3.895-1.568A3.126,3.126,0,0,0,11.6,24.981c-1.061-.721.078-.711.078-.711a2.483,2.483,0,0,1,1.792,1.207,2.493,2.493,0,0,0,3.4.974,2.522,2.522,0,0,1,.74-1.568c-2.59-.292-5.326-1.3-5.326-5.774a4.508,4.508,0,0,1,1.207-3.135,4.167,4.167,0,0,1,.058-3.106s.974-.321,3.213,1.2a10.886,10.886,0,0,1,5.842,0c2.239-1.538,3.213-1.2,3.213-1.2a4.167,4.167,0,0,1,.117,3.087,4.508,4.508,0,0,1,1.2,3.135c0,4.489-2.726,5.482-5.326,5.764a2.8,2.8,0,0,1,.8,2.152v3.2c0,.389.2.672.8.565A11.684,11.684,0,0,0,19.684,8Z" transform="translate(-7.986 -8)" fill="#b8b8b8" fill-rule="evenodd"/>
</svg>
