<svg xmlns="http://www.w3.org/2000/svg" width="14" height="17.5" viewBox="0 0 14 17.5">
  <g id="Location" transform="translate(-3 -2)">
    <path id="Path_1087" data-name="Path 1087" d="M10,3.294A5.7,5.7,0,0,0,4.22,9.271a9.866,9.866,0,0,0,.145,1.218,11.208,11.208,0,0,0,2.531,4.7,23.561,23.561,0,0,0,3.023,2.986.12.12,0,0,0,.162,0A23.566,23.566,0,0,0,13.1,15.189a11.209,11.209,0,0,0,2.531-4.7,9.848,9.848,0,0,0,.145-1.218A5.7,5.7,0,0,0,10,3.294ZM3.016,9.365a6.993,6.993,0,1,1,13.967,0,11.21,11.21,0,0,1-.169,1.394A12.491,12.491,0,0,1,14,16.052a24.8,24.8,0,0,1-3.188,3.15,1.262,1.262,0,0,1-1.629,0A24.8,24.8,0,0,1,6,16.052a12.491,12.491,0,0,1-2.812-5.293A11.206,11.206,0,0,1,3.016,9.365Z" fill="#2d2d2d" fill-rule="evenodd"/>
    <path id="Path_1088" data-name="Path 1088" d="M11.368,9.068a.96.96,0,1,0,1.005.959A.983.983,0,0,0,11.368,9.068Zm-2.212.959a2.214,2.214,0,0,1,4.424,0,2.214,2.214,0,0,1-4.424,0Z" transform="translate(-1.368 -0.526)" fill="#2d2d2d" fill-rule="evenodd"/>
  </g>
</svg>
