<svg xmlns="http://www.w3.org/2000/svg" width="22.798" height="19.715" viewBox="0 0 22.798 19.715">
  <g id="mail" transform="translate(-1.25 -2.209)">
    <path id="Path_91830" data-name="Path 91830" d="M2.25,8.65V22.638a2.481,2.481,0,0,0,2.62,2.318H20.882a2.481,2.481,0,0,0,2.62-2.318V8.65Z" transform="translate(-0.227 -3.809)" fill="#38a7fc"/>
    <path id="Path_91830_-_Outline" data-name="Path 91830 - Outline" d="M2.023,7.65H23.275a.727.727,0,0,1,.773.671v12.15q0,.021,0,.043A3.1,3.1,0,0,1,20.8,23.16c-.055,0-.112,0-.167,0H4.664c-.056,0-.112,0-.167,0a3.1,3.1,0,0,1-3.245-2.646q0-.021,0-.043V8.321A.727.727,0,0,1,2.023,7.65ZM22.5,8.993H2.8V20.448a1.632,1.632,0,0,0,1.7,1.37l.1,0H20.7l.1,0a1.632,1.632,0,0,0,1.7-1.37Z" transform="translate(0 -1.236)" fill="#00047f"/>
    <path id="Path_91831" data-name="Path 91831" d="M19.621,1.25H4.132c-1.591,0-2.882.957-2.882,2.138V5.864A2.241,2.241,0,0,0,3.037,7.841L11.6,10.456a1.024,1.024,0,0,0,.548,0l8.566-2.614h0A2.241,2.241,0,0,0,22.5,5.864V3.388C22.5,2.207,21.212,1.25,19.621,1.25Z" transform="translate(0.773 1.732)" fill="#fff"/>
    <path id="Path_91831_-_Outline" data-name="Path 91831 - Outline" d="M3.9.25H19.393c2.015,0,3.654,1.27,3.654,2.83V5.636A2.921,2.921,0,0,1,20.77,8.258l-8.584,2.7a1.951,1.951,0,0,1-1.073,0l-.019-.006-8.566-2.7A2.921,2.921,0,0,1,.25,5.636V3.08C.25,1.52,1.889.25,3.9.25Zm7.753,9.543L20.207,7.1a1.647,1.647,0,0,0,1.3-1.463V3.08c0-.874-.946-1.585-2.109-1.585H3.9C2.742,1.5,1.8,2.206,1.8,3.08V5.636A1.647,1.647,0,0,0,3.091,7.1l8.55,2.694Z" transform="translate(1 1.959)" fill="#00047f"/>
  </g>
</svg>
