<svg xmlns="http://www.w3.org/2000/svg" width="24.915" height="24.915" viewBox="0 0 24.915 24.915">
  <path id="MessageIn" d="M2.116,4.868A2.172,2.172,0,0,1,5.028,2.179c2.677,1.132,6.961,2.983,10.049,4.514,3.509,1.739,8.219,4.426,10.756,5.9a2.155,2.155,0,0,1,0,3.737c-2.537,1.47-7.247,4.157-10.756,5.9C11.989,23.753,7.705,25.6,5.028,26.736a2.172,2.172,0,0,1-2.911-2.689l3.209-9.59ZM6.991,15.393,3.9,24.639a.3.3,0,0,0,.4.375c2.676-1.132,6.914-2.963,9.946-4.467,3.448-1.709,8.11-4.367,10.648-5.838a.288.288,0,0,0,0-.5c-2.538-1.471-7.2-4.129-10.648-5.838-3.033-1.5-7.27-3.335-9.946-4.466a.3.3,0,0,0-.4.375l3.094,9.246h5.164a.935.935,0,1,1,0,1.87Z" transform="translate(-2 -2)" fill="#9e9e9e" fill-rule="evenodd"/>
</svg>
