<svg xmlns="http://www.w3.org/2000/svg" width="22.529" height="25.031" viewBox="0 0 22.529 25.031">
  <path id="Notification" d="M-14457.351,1808.5v-.526c-1.711-.167-3.411-.408-4.7-.609a3.431,3.431,0,0,1-2.922-3.786c.234-1.936.614-4.735,1.069-6.83.2-.9.455-1.9.734-2.9a9.653,9.653,0,0,1,9.438-6.85,9.654,9.654,0,0,1,9.437,6.85c.279,1,.538,2,.734,2.9.454,2.1.833,4.894,1.067,6.83a3.43,3.43,0,0,1-2.921,3.786c-1.293.2-2.991.442-4.7.609v.526a3.573,3.573,0,0,1-3.616,3.53A3.572,3.572,0,0,1-14457.351,1808.5Zm1.97,0a1.625,1.625,0,0,0,1.646,1.6,1.624,1.624,0,0,0,1.644-1.6v-.371c-.57.032-1.123.051-1.644.051s-1.075-.018-1.646-.051Zm-5.89-14.143c-.274.977-.521,1.942-.706,2.79-.436,2-.807,4.724-1.041,6.657a1.5,1.5,0,0,0,1.275,1.657,58.124,58.124,0,0,0,8.008.792,58.246,58.246,0,0,0,8.008-.792,1.493,1.493,0,0,0,1.272-1.657c-.235-1.934-.605-4.654-1.041-6.657-.184-.848-.433-1.814-.705-2.79a7.689,7.689,0,0,0-7.534-5.432A7.687,7.687,0,0,0-14461.271,1794.359Z" transform="translate(14465.001 -1787)" fill="#2d2d2d"/>
</svg>
