<svg xmlns="http://www.w3.org/2000/svg" width="20.727" height="25.908" viewBox="0 0 20.727 25.908">
  <g id="Profile" transform="translate(-4 -2)">
    <path id="Path_1184" data-name="Path 1184" d="M13.448,3.993a4.318,4.318,0,1,0,4.346,4.318A4.332,4.332,0,0,0,13.448,3.993ZM7.1,8.311a6.352,6.352,0,1,1,6.352,6.311A6.331,6.331,0,0,1,7.1,8.311Z" transform="translate(0.915)" fill="#2d2d2d" fill-rule="evenodd"/>
    <path id="Path_1185" data-name="Path 1185" d="M11.081,15.788A5.059,5.059,0,0,0,6.006,20.83a.75.75,0,0,0,.055.31.139.139,0,0,0,.061.074c.779.421,2.965,1.217,8.241,1.217s7.462-.8,8.241-1.217a.14.14,0,0,0,.061-.074.749.749,0,0,0,.055-.31,5.059,5.059,0,0,0-5.075-5.043ZM4,20.83a7.058,7.058,0,0,1,7.081-7.036h6.565a7.058,7.058,0,0,1,7.081,7.036,2.346,2.346,0,0,1-1.163,2.134c-1.2.647-3.764,1.459-9.2,1.459s-8-.812-9.2-1.459A2.346,2.346,0,0,1,4,20.83Z" transform="translate(0 3.484)" fill="#2d2d2d" fill-rule="evenodd"/>
  </g>
</svg>
