<svg xmlns="http://www.w3.org/2000/svg" width="22.798" height="22.798" viewBox="0 0 22.798 22.798">
  <g id="prolink" transform="translate(0 -0.001)">
    <path id="Path_91827" data-name="Path 91827" d="M11.273,18.754a4.086,4.086,0,0,0,0-5.776L9.847,11.552a4.086,4.086,0,0,0-5.776,0L1.219,14.4a4.086,4.086,0,0,0,0,5.776l1.426,1.426a4.086,4.086,0,0,0,5.776,0ZM21.626,8.4a4.086,4.086,0,0,0,0-5.776L20.2,1.2a4.086,4.086,0,0,0-5.776,0L11.572,4.051a4.086,4.086,0,0,0,0,5.776L13,11.253a4.086,4.086,0,0,0,5.776,0Z" transform="translate(-0.023 -0.003)" fill="#fdcb6e" fill-rule="evenodd"/>
    <path id="Path_91828" data-name="Path 91828" d="M20.344,4.9a2.3,2.3,0,0,0-3.244,0L15.253,6.747a2.289,2.289,0,0,0-.364,2.745l-5.4,5.4a2.289,2.289,0,0,0-2.745.364L4.9,17.107a2.294,2.294,0,0,0,3.244,3.244L9.991,18.5a2.289,2.289,0,0,0,.364-2.745l5.4-5.4a2.289,2.289,0,0,0,2.738-.371l1.847-1.847A2.3,2.3,0,0,0,20.344,4.9Z" transform="translate(-1.23 -1.215)" fill="#f39c12"/>
  </g>
</svg>
