<svg xmlns="http://www.w3.org/2000/svg" width="478.359" height="423.332" viewBox="0 0 478.359 423.332">
  <g id="deletepop" transform="translate(-85.82 -44.334)">
    <circle id="Ellipse_334" data-name="Ellipse 334" cx="173.618" cy="173.618" r="173.618" transform="translate(153.661 44.334)" fill="#f3f8ff"/>
    <path id="Path_91841" data-name="Path 91841" d="M564.18,245.782V225.616a14.5,14.5,0,0,0-14.5-14.5H498.5a14.5,14.5,0,0,1-14.5-14.5V176.452a14.5,14.5,0,0,1,14.5-14.5h1.616a14.5,14.5,0,0,0,14.5-14.5V127.287a14.5,14.5,0,0,0-14.5-14.5H163.5a14.5,14.5,0,0,0-14.5,14.5v20.166a14.5,14.5,0,0,0,14.5,14.5h0a14.5,14.5,0,0,1,14.5,14.5v20.166a14.5,14.5,0,0,1-14.5,14.5h-56.07a14.5,14.5,0,0,0-14.5,14.5v20.165a14.5,14.5,0,0,0,14.5,14.5h22a14.5,14.5,0,0,1,14.5,14.5v20.166a14.5,14.5,0,0,1-14.5,14.5h-.053a14.5,14.5,0,0,0-14.5,14.5V344.11a14.5,14.5,0,0,0,14.5,14.5h3.183a14.5,14.5,0,0,1,14.5,14.5v20.166a14.5,14.5,0,0,1-14.5,14.5h-32.24a14.5,14.5,0,0,0-14.5,14.5v20.166a14.5,14.5,0,0,0,14.5,14.5H507.9a14.5,14.5,0,0,0,14.5-14.5V422.273a14.5,14.5,0,0,0-14.5-14.5H495.332a14.5,14.5,0,0,1-14.5-14.5V373.109a14.5,14.5,0,0,1,14.5-14.5h29.643a14.5,14.5,0,0,0,14.5-14.5V323.945a14.5,14.5,0,0,0-14.5-14.5h-8.992a14.5,14.5,0,0,1-14.5-14.5V274.78a14.5,14.5,0,0,1,14.5-14.5h33.7a14.5,14.5,0,0,0,14.5-14.5Z" fill="#eff5ff"/>
    <line id="Line_12" data-name="Line 12" x2="30.321" transform="translate(263.789 261.065)" fill="none" stroke="#ee781d" stroke-miterlimit="10" stroke-width="3"/>
    <line id="Line_13" data-name="Line 13" x2="30.321" transform="translate(263.789 269.804)" fill="none" stroke="#ee781d" stroke-miterlimit="10" stroke-width="3"/>
    <line id="Line_14" data-name="Line 14" x2="30.321" transform="translate(263.789 278.543)" fill="none" stroke="#ee781d" stroke-miterlimit="10" stroke-width="3"/>
    <line id="Line_15" data-name="Line 15" x2="30.321" transform="translate(207.224 110.193)" fill="none" stroke="#d2e3f2" stroke-linecap="round" stroke-miterlimit="10" stroke-width="3"/>
    <line id="Line_16" data-name="Line 16" x2="30.321" transform="translate(207.224 118.932)" fill="none" stroke="#d2e3f2" stroke-linecap="round" stroke-miterlimit="10" stroke-width="3"/>
    <line id="Line_17" data-name="Line 17" x2="30.321" transform="translate(207.224 127.671)" fill="none" stroke="#d2e3f2" stroke-linecap="round" stroke-miterlimit="10" stroke-width="3"/>
    <line id="Line_18" data-name="Line 18" x2="30.321" transform="translate(480.243 250.374)" fill="none" stroke="#d2e3f2" stroke-linecap="round" stroke-miterlimit="10" stroke-width="3"/>
    <line id="Line_19" data-name="Line 19" x2="30.321" transform="translate(480.243 259.113)" fill="none" stroke="#d2e3f2" stroke-linecap="round" stroke-miterlimit="10" stroke-width="3"/>
    <line id="Line_20" data-name="Line 20" x2="30.321" transform="translate(480.243 267.852)" fill="none" stroke="#d2e3f2" stroke-linecap="round" stroke-miterlimit="10" stroke-width="3"/>
    <line id="Line_21" data-name="Line 21" x2="30.32" transform="translate(165.278 382.831)" fill="none" stroke="#d2e3f2" stroke-linecap="round" stroke-miterlimit="10" stroke-width="3"/>
    <line id="Line_22" data-name="Line 22" x2="30.32" transform="translate(165.278 391.57)" fill="none" stroke="#d2e3f2" stroke-linecap="round" stroke-miterlimit="10" stroke-width="3"/>
    <line id="Line_23" data-name="Line 23" x2="30.32" transform="translate(165.278 400.309)" fill="none" stroke="#d2e3f2" stroke-linecap="round" stroke-miterlimit="10" stroke-width="3"/>
    <circle id="Ellipse_335" data-name="Ellipse 335" cx="15.42" cy="15.42" r="15.42" transform="translate(154.368 232.176)" fill="#d2e3f2"/>
    <circle id="Ellipse_336" data-name="Ellipse 336" cx="8.032" cy="8.032" r="8.032" transform="translate(165.618 208.356)" fill="#d2e3f2"/>
    <circle id="Ellipse_337" data-name="Ellipse 337" cx="4.633" cy="4.633" r="4.633" transform="translate(197.286 212.61)" fill="#d2e3f2"/>
    <circle id="Ellipse_338" data-name="Ellipse 338" cx="11.106" cy="11.106" r="11.106" transform="translate(193.563 231.846)" fill="#d2e3f2"/>
    <circle id="Ellipse_339" data-name="Ellipse 339" cx="15.42" cy="15.42" r="15.42" transform="translate(450.19 403.236)" fill="#d2e3f2"/>
    <circle id="Ellipse_340" data-name="Ellipse 340" cx="8.032" cy="8.032" r="8.032" transform="translate(436.015 387.736)" fill="#d2e3f2"/>
    <circle id="Ellipse_341" data-name="Ellipse 341" cx="4.633" cy="4.633" r="4.633" transform="translate(458.112 369.915)" fill="#d2e3f2"/>
    <circle id="Ellipse_342" data-name="Ellipse 342" cx="11.106" cy="11.106" r="11.106" transform="translate(473.188 377.73)" fill="#d2e3f2"/>
    <circle id="Ellipse_343" data-name="Ellipse 343" cx="15.42" cy="15.42" r="15.42" transform="translate(434.766 142.629)" fill="#d2e3f2"/>
    <circle id="Ellipse_344" data-name="Ellipse 344" cx="8.032" cy="8.032" r="8.032" transform="translate(414.354 127.129)" fill="#d2e3f2"/>
    <circle id="Ellipse_345" data-name="Ellipse 345" cx="11.106" cy="11.106" r="11.106" transform="translate(441.642 116.021)" fill="#d2e3f2"/>
    <circle id="Ellipse_346" data-name="Ellipse 346" cx="15.42" cy="15.42" r="15.42" transform="translate(261.761 337.603)" fill="#ee781d"/>
    <circle id="Ellipse_347" data-name="Ellipse 347" cx="8.032" cy="8.032" r="8.032" transform="translate(247.585 322.103)" fill="#ee781d"/>
    <circle id="Ellipse_348" data-name="Ellipse 348" cx="4.633" cy="4.633" r="4.633" transform="translate(269.682 304.282)" fill="#ee781d"/>
    <circle id="Ellipse_349" data-name="Ellipse 349" cx="11.106" cy="11.106" r="11.106" transform="translate(284.758 312.098)" fill="#ee781d"/>
    <path id="Path_91842" data-name="Path 91842" d="M315.217,153.879c31.528-44.428,51.1-84.691,43.717-89.931l-8.46-6c-7.384-5.24-38.928,26.528-70.456,70.956s-51.1,84.691-43.717,89.931l8.46,6C252.146,230.074,283.689,198.307,315.217,153.879Z" fill="#fff"/>
    <ellipse id="Ellipse_350" data-name="Ellipse 350" cx="98.641" cy="16.394" rx="98.641" ry="16.394" transform="matrix(0.579, -0.816, 0.816, 0.579, 222.932, 209.343)" fill="#0047c5"/>
    <path id="Path_91843" data-name="Path 91843" d="M299.719,114.713c8.771,6.224-17.065,42.631-25.836,36.407s-10.1-19.42-2.964-29.473S290.948,108.489,299.719,114.713Z" fill="#97ccfc"/>
    <path id="Path_91844" data-name="Path 91844" d="M237.545,252.6,260.7,455.162h.251c0,6.906,33.684,12.5,75.234,12.5s75.234-5.6,75.234-12.5h.251L434.826,252.6Z" fill="#0047c5"/>
    <ellipse id="Ellipse_351" data-name="Ellipse 351" cx="98.641" cy="16.394" rx="98.641" ry="16.394" transform="translate(237.544 236.208)" fill="#97ccfc"/>
    <rect id="Rectangle_2190" data-name="Rectangle 2190" width="8.428" height="147.137" rx="2" transform="translate(334.764 298.096)" fill="#fff"/>
    <path id="Path_91845" data-name="Path 91845" d="M383.921,445.429l-5.329-.737c-.851-.118-1.493-1.6-1.434-3.318l4.784-140.582c.058-1.715.8-3.009,1.646-2.892l5.329.737c.851.118,1.493,1.6,1.434,3.318l-4.783,140.583C385.509,444.252,384.772,445.547,383.921,445.429Z" fill="#fff"/>
    <path id="Path_91846" data-name="Path 91846" d="M290.967,445.429l5.329-.737c.851-.118,1.493-1.6,1.434-3.318l-4.783-140.582c-.058-1.715-.8-3.009-1.646-2.892l-5.329.737c-.851.118-1.493,1.6-1.434,3.318l4.783,140.583C289.38,444.252,290.117,445.547,290.967,445.429Z" fill="#fff"/>
    <path id="Path_91847" data-name="Path 91847" d="M379.5,226.67l-6.94,23.529-59.99-17.694a2.534,2.534,0,0,1-1.714-3.148l28.076-95.186a2.534,2.534,0,0,1,3.148-1.714L423.263,156.4a2.534,2.534,0,0,1,1.714,3.148l-21.852,74.088Z" fill="#3c8bf0"/>
    <g id="Group_779" data-name="Group 779">
      <path id="Path_91848" data-name="Path 91848" d="M372.558,250.2l6.94-23.529,23.626,6.968Z" fill="#fff"/>
      <rect id="Rectangle_2191" data-name="Rectangle 2191" width="31.171" height="14.23" transform="translate(347.42 153.757) rotate(16.433)" fill="#fff"/>
      <line id="Line_24" data-name="Line 24" x2="22.898" y2="6.754" transform="translate(382.742 171.593)" fill="none" stroke="#fff" stroke-miterlimit="10" stroke-width="3"/>
      <line id="Line_25" data-name="Line 25" x2="22.898" y2="6.753" transform="translate(330.18 213.286)" fill="none" stroke="#fff" stroke-miterlimit="10" stroke-width="3"/>
      <line id="Line_26" data-name="Line 26" x2="60.233" y2="17.766" transform="translate(340.256 178.052)" fill="none" stroke="#fff" stroke-miterlimit="10" stroke-width="3"/>
      <line id="Line_27" data-name="Line 27" x2="60.233" y2="17.766" transform="translate(336.799 189.768)" fill="none" stroke="#fff" stroke-miterlimit="10" stroke-width="3"/>
      <line id="Line_28" data-name="Line 28" x2="60.233" y2="17.766" transform="translate(333.344 201.484)" fill="none" stroke="#fff" stroke-miterlimit="10" stroke-width="3"/>
    </g>
  </g>
</svg>
