<svg xmlns="http://www.w3.org/2000/svg" width="27" height="27" viewBox="0 0 27 27">
  <g id="Category" transform="translate(-2 -2)">
    <path id="Path_984" data-name="Path 984" d="M8.075,4.144a19.4,19.4,0,0,0-3.3.42.258.258,0,0,0-.206.206,19.4,19.4,0,0,0-.42,3.3,19.4,19.4,0,0,0,.42,3.3.258.258,0,0,0,.206.206,19.4,19.4,0,0,0,3.3.42,19.4,19.4,0,0,0,3.3-.42.258.258,0,0,0,.206-.206,19.4,19.4,0,0,0,.42-3.3,19.4,19.4,0,0,0-.42-3.3.258.258,0,0,0-.206-.206A19.4,19.4,0,0,0,8.075,4.144ZM4.351,2.461A21.352,21.352,0,0,1,8.075,2a21.352,21.352,0,0,1,3.724.461,2.4,2.4,0,0,1,1.889,1.889,21.348,21.348,0,0,1,.461,3.724,21.348,21.348,0,0,1-.461,3.724A2.4,2.4,0,0,1,11.8,13.689a21.348,21.348,0,0,1-3.724.461,21.348,21.348,0,0,1-3.724-.461A2.4,2.4,0,0,1,2.461,11.8,21.352,21.352,0,0,1,2,8.075a21.352,21.352,0,0,1,.461-3.724A2.4,2.4,0,0,1,4.351,2.461Z" fill="#005ce6" fill-rule="evenodd"/>
    <path id="Path_985" data-name="Path 985" d="M8.075,15.144a19.4,19.4,0,0,0-3.3.42.258.258,0,0,0-.206.206,19.4,19.4,0,0,0-.42,3.3,19.4,19.4,0,0,0,.42,3.3.258.258,0,0,0,.206.206,19.4,19.4,0,0,0,3.3.42,19.4,19.4,0,0,0,3.3-.42.258.258,0,0,0,.206-.206,19.4,19.4,0,0,0,.42-3.3,19.4,19.4,0,0,0-.42-3.3.258.258,0,0,0-.206-.206A19.4,19.4,0,0,0,8.075,15.144ZM4.351,13.461A21.348,21.348,0,0,1,8.075,13a21.348,21.348,0,0,1,3.724.461,2.4,2.4,0,0,1,1.889,1.889,21.349,21.349,0,0,1,.461,3.724,21.349,21.349,0,0,1-.461,3.724A2.4,2.4,0,0,1,11.8,24.689a21.348,21.348,0,0,1-3.724.461,21.348,21.348,0,0,1-3.724-.461A2.4,2.4,0,0,1,2.461,22.8,21.353,21.353,0,0,1,2,19.075a21.353,21.353,0,0,1,.461-3.724A2.4,2.4,0,0,1,4.351,13.461Z" transform="translate(0 3.85)" fill="#005ce6" fill-rule="evenodd"/>
    <path id="Path_986" data-name="Path 986" d="M19.075,4.144a19.4,19.4,0,0,0-3.3.42.258.258,0,0,0-.206.206,19.4,19.4,0,0,0-.42,3.3,19.4,19.4,0,0,0,.42,3.3.258.258,0,0,0,.206.206,19.4,19.4,0,0,0,3.3.42,19.4,19.4,0,0,0,3.3-.42.258.258,0,0,0,.206-.206,19.4,19.4,0,0,0,.42-3.3,19.4,19.4,0,0,0-.42-3.3.258.258,0,0,0-.206-.206A19.4,19.4,0,0,0,19.075,4.144ZM15.351,2.461A21.353,21.353,0,0,1,19.075,2a21.353,21.353,0,0,1,3.724.461,2.4,2.4,0,0,1,1.889,1.889,21.348,21.348,0,0,1,.461,3.724,21.348,21.348,0,0,1-.461,3.724A2.4,2.4,0,0,1,22.8,13.689a21.349,21.349,0,0,1-3.724.461,21.349,21.349,0,0,1-3.724-.461A2.4,2.4,0,0,1,13.461,11.8,21.348,21.348,0,0,1,13,8.075a21.348,21.348,0,0,1,.461-3.724A2.4,2.4,0,0,1,15.351,2.461Z" transform="translate(3.85)" fill="#005ce6" fill-rule="evenodd"/>
    <path id="Path_987" data-name="Path 987" d="M19.075,15.144a19.4,19.4,0,0,0-3.3.42.258.258,0,0,0-.206.206,19.4,19.4,0,0,0-.42,3.3,19.4,19.4,0,0,0,.42,3.3.258.258,0,0,0,.206.206,19.4,19.4,0,0,0,3.3.42,19.4,19.4,0,0,0,3.3-.42.258.258,0,0,0,.206-.206,19.4,19.4,0,0,0,.42-3.3,19.4,19.4,0,0,0-.42-3.3.258.258,0,0,0-.206-.206A19.4,19.4,0,0,0,19.075,15.144Zm-3.724-1.683A21.349,21.349,0,0,1,19.075,13a21.349,21.349,0,0,1,3.724.461,2.4,2.4,0,0,1,1.889,1.889,21.349,21.349,0,0,1,.461,3.724,21.349,21.349,0,0,1-.461,3.724A2.4,2.4,0,0,1,22.8,24.689a21.349,21.349,0,0,1-3.724.461,21.349,21.349,0,0,1-3.724-.461A2.4,2.4,0,0,1,13.461,22.8,21.349,21.349,0,0,1,13,19.075a21.349,21.349,0,0,1,.461-3.724A2.4,2.4,0,0,1,15.351,13.461Z" transform="translate(3.85 3.85)" fill="#005ce6" fill-rule="evenodd"/>
  </g>
</svg>
