<svg xmlns="http://www.w3.org/2000/svg" xmlns:xlink="http://www.w3.org/1999/xlink" width="207" height="207" viewBox="0 0 207 207">
  <defs>
    <filter id="Ellipse_3" x="0" y="0" width="207" height="207" filterUnits="userSpaceOnUse">
      <feOffset dx="8" dy="24" input="SourceAlpha"/>
      <feGaussianBlur stdDeviation="18.5" result="blur"/>
      <feFlood flood-opacity="0.2"/>
      <feComposite operator="in" in2="blur"/>
      <feComposite in="SourceGraphic"/>
    </filter>
  </defs>
  <g id="Group_316" data-name="Group 316" transform="translate(47.828 31.076)">
    <g transform="matrix(1, 0, 0, 1, -47.83, -31.08)" filter="url(#Ellipse_3)">
      <circle id="Ellipse_3-2" data-name="Ellipse 3" cx="48" cy="48" r="48" transform="translate(47.5 31.5)" fill="#474dff"/>
    </g>
    <g id="Group_315" data-name="Group 315" transform="translate(23.995 22.075)">
      <g id="vector" transform="translate(0 0)">
        <path id="Path_176" data-name="Path 176" d="M156.052,107.76a30.747,30.747,0,0,1-8.739-13.152,2.745,2.745,0,0,0-5.167,0,30.745,30.745,0,0,1-8.739,13.152,3.6,3.6,0,0,0-.453,5.107,22.781,22.781,0,0,1,4.67,9.588l1.524,12.288a1.022,1.022,0,0,0,1.014.9H149.3a1.022,1.022,0,0,0,1.014-.9l1.524-12.287a22.779,22.779,0,0,1,4.67-9.589A3.6,3.6,0,0,0,156.052,107.76Zm-7.658,25.835h-7.329l-1.274-10.274h9.878Zm-3.665-19.811a1.772,1.772,0,1,1,1.772-1.772A1.774,1.774,0,0,1,144.729,113.784Zm10.222-2.246A24.637,24.637,0,0,0,150,121.277h-4.253v-5.588a3.816,3.816,0,1,0-2.044,0v5.588h-4.253a24.642,24.642,0,0,0-4.948-9.739,1.558,1.558,0,0,1,.21-2.209A32.781,32.781,0,0,0,144.069,95.3a.7.7,0,0,1,1.32,0,32.784,32.784,0,0,0,9.353,14.029,1.558,1.558,0,0,1,.21,2.209Z" transform="translate(-120.302 -83.307)" fill="#fff"/>
        <path id="Path_177" data-name="Path 177" d="M62.354.671A3.276,3.276,0,0,0,59.316,2.73H44.888V2.4a2.4,2.4,0,0,0-2.4-2.4h-2.7a2.4,2.4,0,0,0-2.4,2.4v.33H23.019a3.27,3.27,0,1,0,.127,2.044H33.259a17.7,17.7,0,0,0-8.229,8.56h-.543a2.4,2.4,0,0,0-2.4,2.4v2.7a2.4,2.4,0,0,0,2.4,2.4h2.7a2.4,2.4,0,0,0,2.4-2.4v-2.7a2.4,2.4,0,0,0-2.291-2.4A15.634,15.634,0,0,1,37.4,5.416,2.4,2.4,0,0,0,39.783,7.5h2.7a2.4,2.4,0,0,0,2.379-2.089,15.742,15.742,0,0,1,10.1,7.921,2.4,2.4,0,0,0-2.291,2.4v2.7a2.4,2.4,0,0,0,2.4,2.4h2.7a2.4,2.4,0,0,0,2.4-2.4v-2.7a2.4,2.4,0,0,0-2.4-2.4h-.543a17.7,17.7,0,0,0-8.228-8.56H59.19a3.272,3.272,0,1,0,3.164-4.1ZM27.548,15.734v2.7a.356.356,0,0,1-.356.356h-2.7a.356.356,0,0,1-.356-.356v-2.7a.356.356,0,0,1,.356-.356h2.7A.356.356,0,0,1,27.548,15.734Zm30.592,0v2.7a.356.356,0,0,1-.356.356h-2.7a.356.356,0,0,1-.356-.356v-2.7a.356.356,0,0,1,.356-.356h2.7A.356.356,0,0,1,58.14,15.734ZM19.981,5.17a1.227,1.227,0,1,1,1.227-1.227A1.229,1.229,0,0,1,19.981,5.17ZM42.844,5.1a.356.356,0,0,1-.356.356h-2.7a.356.356,0,0,1-.356-.356V2.4a.356.356,0,0,1,.356-.356h2.7a.356.356,0,0,1,.356.356Zm19.51.066a1.227,1.227,0,1,1,1.228-1.227A1.229,1.229,0,0,1,62.354,5.17Z" transform="translate(-16.709 0)" fill="#fff"/>
        <path id="Path_178" data-name="Path 178" d="M183.323,188.076a1.022,1.022,0,0,0-1.356.5,17.163,17.163,0,0,1-5.021,6.281,1.022,1.022,0,0,0,1.17,1.676,18.93,18.93,0,0,0,5.707-7.1A1.022,1.022,0,0,0,183.323,188.076Z" transform="translate(-160.175 -168.768)" fill="#fff"/>
        <path id="Path_179" data-name="Path 179" d="M244.022,157.167a1.022,1.022,0,1,0,0,2.044h0a1.022,1.022,0,0,0,0-2.044Z" transform="translate(-219.87 -141.103)" fill="#fff"/>
      </g>
    </g>
  </g>
</svg>
